<svg width="14" height="13" viewBox="0 0 14 13" fill="none" xmlns="http://www.w3.org/2000/svg">
<path d="M6.99928 10.9566L3.88678 12.8316C3.74928 12.9191 3.60553 12.9566 3.45553 12.9441C3.30553 12.9316 3.17428 12.8816 3.06178 12.7941C2.94928 12.7066 2.86178 12.5973 2.79928 12.466C2.73678 12.3348 2.72428 12.1879 2.76178 12.0254L3.58678 8.48164L0.830529 6.10039C0.705529 5.98789 0.627404 5.85977 0.596154 5.71602C0.564904 5.57227 0.574279 5.43164 0.624279 5.29414C0.674279 5.15664 0.749279 5.04414 0.849279 4.95664C0.949279 4.86914 1.08678 4.81289 1.26178 4.78789L4.89928 4.46914L6.30553 1.13164C6.36803 0.981641 6.4649 0.869141 6.59615 0.794141C6.7274 0.719141 6.86178 0.681641 6.99928 0.681641C7.13678 0.681641 7.27115 0.719141 7.4024 0.794141C7.53365 0.869141 7.63053 0.981641 7.69303 1.13164L9.09928 4.46914L12.7368 4.78789C12.9118 4.81289 13.0493 4.86914 13.1493 4.95664C13.2493 5.04414 13.3243 5.15664 13.3743 5.29414C13.4243 5.43164 13.4337 5.57227 13.4024 5.71602C13.3712 5.85977 13.293 5.98789 13.168 6.10039L10.4118 8.48164L11.2368 12.0254C11.2743 12.1879 11.2618 12.3348 11.1993 12.466C11.1368 12.5973 11.0493 12.7066 10.9368 12.7941C10.8243 12.8816 10.693 12.9316 10.543 12.9441C10.393 12.9566 10.2493 12.9191 10.1118 12.8316L6.99928 10.9566Z" fill="#6A42DB"/>
</svg>
