<svg width="67" height="68" viewBox="0 0 67 68" fill="none" xmlns="http://www.w3.org/2000/svg">
<rect y="0.5" width="67" height="67" rx="8" fill="#F2F4F8"/>
<g clip-path="url(#clip0_292_12698)">
<path d="M47.8157 60.5557L43.8208 58.2021V45.7751C43.8208 45.3281 43.4585 44.9658 43.0116 44.9658C42.5647 44.9658 42.2024 45.3281 42.2024 45.7751V58.2021L38.2075 60.5557C38.0922 60.6236 38.1404 60.8003 38.2742 60.8003H47.7489C47.8828 60.8003 47.931 60.6236 47.8157 60.5557Z" fill="white"/>
<path d="M26.2144 21.839V7.94725C26.2144 7.53467 25.8799 7.2002 25.4673 7.2002H21.46C21.0474 7.2002 20.713 7.53467 20.713 7.94725V21.839C20.713 22.6177 20.4536 23.3743 19.9759 23.9893L18.1926 26.2849C17.0689 27.7314 16.459 29.511 16.459 31.3426V59.27C16.459 60.1151 17.1441 60.8002 17.9892 60.8002H28.9382C29.7833 60.8002 30.4684 60.1151 30.4684 59.27V31.3426C30.4684 29.5109 29.8584 27.7314 28.7347 26.2849L26.9515 23.9893C26.4737 23.3743 26.2144 22.6177 26.2144 21.839Z" fill="#6A42DB"/>
<path d="M48.7707 30.416H37.2501C37.2501 30.416 34.5588 37.0645 35.8178 41.3139C36.8663 44.8528 39.9841 46.3687 41.7514 46.9582C42.5685 47.2308 43.4521 47.2308 44.2692 46.9582C46.0364 46.3687 49.1542 44.8528 50.2028 41.3139C51.4621 37.0645 48.7707 30.416 48.7707 30.416Z" fill="white"/>
<path d="M35.5355 37.4736C35.4246 38.8099 35.4733 40.1519 35.8178 41.3143C36.8663 44.8533 39.9841 46.3691 41.7513 46.9586C42.5685 47.2312 43.452 47.2312 44.2692 46.9586C46.0364 46.3691 49.1542 44.8533 50.2028 41.3143C50.5472 40.1519 50.596 38.8099 50.485 37.4736H35.5355Z" fill="#6A42DB"/>
<path d="M30.4679 47.6582H23.0412C22.3033 47.6582 21.7051 47.06 21.7051 46.3221V36.8547C21.7051 36.1167 22.3033 35.5186 23.0412 35.5186H30.4679V47.6582Z" fill="#9170EE"/>
<path d="M25.4673 7.2002H21.4599C21.0474 7.2002 20.7129 7.53467 20.7129 7.94725V20.1778H26.2144C26.2144 20.1778 26.2144 10.7083 26.2144 7.94725C26.2143 7.53467 25.8798 7.2002 25.4673 7.2002Z" fill="#5732BF"/>
<path d="M26.3546 12.289H20.5731C20.4044 12.289 20.2676 12.1523 20.2676 11.9835V9.90118C20.2676 9.73253 20.4043 9.5957 20.5731 9.5957H26.3546C26.5233 9.5957 26.6601 9.73242 26.6601 9.90118V11.9835C26.66 12.1523 26.5233 12.289 26.3546 12.289Z" fill="#5732BF"/>
</g>
<defs>
<clipPath id="clip0_292_12698">
<rect width="53.6" height="53.6" fill="white" transform="translate(6.69922 7.2002)"/>
</clipPath>
</defs>
</svg>
